<svg xmlns="http://www.w3.org/2000/svg" viewBox="0 0 32 32" width="32" height="32">
  <defs>
    <linearGradient id="oliveGradient" x1="0%" y1="0%" x2="100%" y2="100%">
      <stop offset="0%" style="stop-color:#9caf88;stop-opacity:1" />
      <stop offset="50%" style="stop-color:#6b8e23;stop-opacity:1" />
      <stop offset="100%" style="stop-color:#556b2f;stop-opacity:1" />
    </linearGradient>
    <linearGradient id="goldAccent" x1="0%" y1="0%" x2="100%" y2="100%">
      <stop offset="0%" style="stop-color:#daa520;stop-opacity:1" />
      <stop offset="100%" style="stop-color:#b8860b;stop-opacity:1" />
    </linearGradient>
    <filter id="softShadow" x="-50%" y="-50%" width="200%" height="200%">
      <feDropShadow dx="0.5" dy="0.8" stdDeviation="1.2" flood-color="#3d4f1f" flood-opacity="0.25"/>
    </filter>
  </defs>
  
  <!-- Círculo de fundo moderno -->
  <circle cx="16" cy="16" r="13.5" fill="none" stroke="url(#oliveGradient)" stroke-width="1.2" opacity="0.3"/>
  
  <!-- Letra H moderna -->
  <g fill="url(#oliveGradient)" filter="url(#softShadow)">
    <!-- H - estilo moderno sem serifas -->
    <rect x="8" y="11" width="2.8" height="10" rx="1.4"/>
    <rect x="8" y="15.2" width="6.5" height="2" rx="1"/>
    <rect x="11.7" y="11" width="2.8" height="10" rx="1.4"/>
  </g>
  
  <!-- Elemento central simples -->
  <g fill="url(#goldAccent)">
    <!-- Círculo central -->
    <circle cx="16" cy="16" r="1.8" opacity="0.7"/>
    <!-- Pequenos pontos decorativos -->
    <circle cx="16" cy="13" r="0.5" opacity="0.5"/>
    <circle cx="16" cy="19" r="0.5" opacity="0.5"/>
  </g>
  
  <!-- Letra E moderna -->
  <g fill="url(#oliveGradient)" filter="url(#softShadow)">
    <!-- E - estilo moderno arredondado -->
    <rect x="17.5" y="11" width="2.8" height="10" rx="1.4"/>
    <rect x="17.5" y="11" width="5.5" height="2" rx="1"/>
    <rect x="17.5" y="15.2" width="4.2" height="1.6" rx="0.8"/>
    <rect x="17.5" y="19" width="5.5" height="2" rx="1"/>
  </g>
  
  <!-- Decorações minimalistas -->
  <g fill="url(#goldAccent)" opacity="0.4">
    <!-- Pequenos círculos nos cantos -->
    <circle cx="9" cy="8.5" r="0.6"/>
    <circle cx="23" cy="8.5" r="0.6"/>
    <circle cx="9" cy="23.5" r="0.6"/>
    <circle cx="23" cy="23.5" r="0.6"/>
  </g>
  
  <!-- Linha sutil na base -->
  <rect x="9" y="25.5" width="14" height="0.5" rx="0.25" fill="url(#oliveGradient)" opacity="0.4"/>
</svg>