<?xml version="1.0" encoding="utf-8"?>
<!-- Generator: Adobe Illustrator 25.2.1, SVG Export Plug-In . SVG Version: 6.00 Build 0)  -->
<svg version="1.1" id="Camada_1" xmlns="http://www.w3.org/2000/svg" xmlns:xlink="http://www.w3.org/1999/xlink" x="0px" y="0px"
	 viewBox="0 0 841.9 595.3" style="enable-background:new 0 0 841.9 595.3;" xml:space="preserve">
<style type="text/css">
	.st0{fill:#B0C0B0;}
	.st1{fill:#1B5929;}
	.st2{font-family:'GoudyOldStyleT-Regular';}
	.st3{font-size:265.2317px;}
	.st4{fill:#1B5929;stroke:#000000;stroke-width:0.75;stroke-miterlimit:10;}
	.st5{fill:#1B5929;stroke:#000000;stroke-miterlimit:10;}
	.st6{font-size:49.2547px;}
</style>
<ellipse class="st0" cx="392.9" cy="297.6" rx="268.2" ry="262.9"/>
<g>
	<text transform="matrix(1 0 0 1 460.8154 359.7344)" class="st1 st2 st3">E</text>
	<text transform="matrix(1 0 0 1 165.062 359.8604)" class="st1 st2 st3">H</text>
	<path class="st1" d="M430.3,267.3l-20.1,20.5c-0.5,0.5-1.2,0.5-1.7,0l-20.1-20.5c-4.9-5.1-4.9-13.3,0-18.3c4.8-4.9,13.1-4.9,17.9,0
		l3,3l3-3c4.8-4.9,13.1-4.9,17.9,0C435.2,254,435.2,262.2,430.3,267.3z"/>
	<line class="st4" x1="409.4" y1="291.5" x2="409.4" y2="397.7"/>
	<line class="st5" x1="409.4" y1="135.1" x2="409.4" y2="241.3"/>
	<text transform="matrix(1 0 0 1 292.4365 460.3428)" class="st1 st2 st6">26.09.2025</text>
</g>
</svg>
